:version 1.10
:name ASF
:units
  mass 1
  length 1
  angle deg
:documentation
  ASF file generated by Kaydara
:root
  axis xyz
  order  tx ty tz rx ry rz
  position 0 0 0
  orientation 0 0 0
:bonedata
  begin
    id 1
    name SpineDummy
    direction 0.999998 -0.00179978 1.38929e-006
    length 3.60008
    axis 0 0 0 xyz
  end
  begin
    id 2
    name Spine
    direction 0.964365 0.262802 0.0305839
    length 8.13928
    axis 1.33928 -1.75354 15.2838 xyz
    dof rx ry rz
  end
  begin
    id 3
    name Spine1
    direction 0.811168 0.572065 0.12144
    length 7.14954
    axis 2.2224 -6.9761 35.2157 xyz
    dof rx ry rz
  end
  begin
    id 4
    name Neck
    direction 0 0 0
    length 0
    axis 2.2224 -6.9761 35.2157 xyz
    dof rx ry rz
  end
  begin
    id 5
    name HeadDummy
    direction 0.810939 0.572387 0.121455
    length 3.55534
    axis 2.2224 -6.9761 35.2157 xyz
  end
  begin
    id 6
    name Head
    direction 0.998226 -0.000232542 0.0595419
    length 7.35666
    axis -3.03688 -3.41352 -0.0133467 xyz
    dof rx ry rz
  end
  begin
    id 7
    name R_ClavicleDummy
    direction 0.531669 -0.194489 -0.824319
    length 2.49392
    axis 2.2224 -6.9761 35.2157 xyz
  end
  begin
    id 8
    name R_Clavicle
    direction -0.155119 0.0480802 -0.986725
    length 4.485
    axis -54.2764 80.6538 162.779 xyz
    dof rx ry rz
  end
  begin
    id 9
    name R_UpperArm
    direction -0.955567 0.200068 -0.216484
    length 10.1122
    axis -72.9943 12.5026 168.175 xyz
    dof rx ry rz
  end
  begin
    id 10
    name R_Forearm
    direction -0.61433 0.385743 0.688332
    length 9.39148
    axis -117.015 -43.4982 147.875 xyz
    dof rx ry rz
  end
  begin
    id 11
    name R_Hand
    direction -0.699429 0.0170333 0.714499
    length 3.66324
    axis -45.0303 -36.7097 175.478 xyz
    dof rx ry rz
  end
  begin
    id 12
    name L_ClavicleDummy
    direction 0.40287 -0.36502 0.839319
    length 2.49392
    axis 2.2224 -6.9761 35.2157 xyz
  end
  begin
    id 13
    name L_Clavicle
    direction -0.231271 -0.0726419 0.970174
    length 4.485
    axis 18.4357 -75.9711 -162.563 xyz
    dof rx ry rz
  end
  begin
    id 14
    name L_UpperArm
    direction -0.917494 0.144359 0.370629
    length 10.1122
    axis 56.0417 -21.7544 171.058 xyz
    dof rx ry rz
  end
  begin
    id 15
    name L_Forearm
    direction -0.496786 0.615074 -0.612281
    length 9.39148
    axis 89.8094 37.7546 128.927 xyz
    dof rx ry rz
  end
  begin
    id 16
    name L_Hand
    direction -0.409932 0.64962 -0.640274
    length 3.66324
    axis -0.424369 32.133 128.52 xyz
    dof rx ry rz
  end
  begin
    id 17
    name L_ThighDummy
    direction -1.84081e-006 1.87549e-006 1
    length 3.13049
    axis 0 0 0 xyz
  end
  begin
    id 18
    name L_Thigh
    direction -0.947739 0.307978 0.083308
    length 17.9961
    axis 173.219 -4.77873 161.998 xyz
    dof rx ry rz
  end
  begin
    id 19
    name L_Calf
    direction -0.728814 -0.684427 0.0197583
    length 13.3367
    axis 167.331 -1.13214 -136.799 xyz
    dof rx ry rz
  end
  begin
    id 20
    name L_Foot
    direction -0.9028 0.418719 0.0981191
    length 5.8674
    axis 163.436 11.5135 -155.37 xyz
    dof rx ry rz
  end
  begin
    id 21
    name L_Toe0
    direction -0.35341 0.886259 0.299411
    length 4.75286
    axis 169.316 -17.4222 111.74 xyz
    dof rx ry rz
  end
  begin
    id 22
    name R_ThighDummy
    direction 9.32778e-007 -8.82053e-007 -1
    length 3.13049
    axis 0 0 0 xyz
  end
  begin
    id 23
    name R_Thigh
    direction -0.925064 0.37528 -0.0585023
    length 17.9961
    axis -178.698 3.35385 157.919 xyz
    dof rx ry rz
  end
  begin
    id 24
    name R_Calf
    direction -0.68969 -0.718776 -0.0876886
    length 13.3367
    axis -160.504 5.03065 -133.817 xyz
    dof rx ry rz
  end
  begin
    id 25
    name R_Foot
    direction -0.857405 0.418858 -0.299022
    length 5.8674
    axis -161.328 4.38911 -154.413 xyz
    dof rx ry rz
  end
  begin
    id 26
    name R_Toe0
    direction -0.100745 0.952789 -0.286433
    length 4.75286
    axis 171.683 16.6445 96.0359 xyz
    dof rx ry rz
  end
:hierarchy
  begin
    root SpineDummy L_ThighDummy R_ThighDummy
    SpineDummy Spine
    Spine Spine1
    Spine1 Neck
    Neck HeadDummy R_ClavicleDummy L_ClavicleDummy
    HeadDummy Head
    R_ClavicleDummy R_Clavicle
    R_Clavicle R_UpperArm
    R_UpperArm R_Forearm
    R_Forearm R_Hand
    L_ClavicleDummy L_Clavicle
    L_Clavicle L_UpperArm
    L_UpperArm L_Forearm
    L_Forearm L_Hand
    L_ThighDummy L_Thigh
    L_Thigh L_Calf
    L_Calf L_Foot
    L_Foot L_Toe0
    R_ThighDummy R_Thigh
    R_Thigh R_Calf
    R_Calf R_Foot
    R_Foot R_Toe0
  end

:SAMPLES-PER-SECOND 30
:FULLY-SPECIFIED
:DEGREES
52
root  -10.542 30.1259 -5.86029 -120.734 -7.9886 88.0435
Spine  -7.23238 -1.99667 -0.65153
Spine1  -6.75708 16.8235 0.420645
Neck  3.97569e-016 0 -2.38542e-015
Head  37.1171 -4.76998 16.1502
R_Clavicle  0.569801 -13.0989 3.92015
R_UpperArm  58.5866 -3.97642 55.1573
R_Forearm  20.3531 15.5366 -13.3818
R_Hand  -1.17126 11.0124 -20.3641
L_Clavicle  -0.324922 12.2679 -0.572739
L_UpperArm  -1.84719 -2.48051 1.15273
L_Forearm  -3.61109 -8.61658 -10.0919
L_Hand  -0.443876 5.04953 -4.59937
L_Thigh  -2.20836 8.09875 1.9665
L_Calf  -12.0664 2.20409 -16.6706
L_Foot  3.89052 10.4035 4.55726
L_Toe0  0.533795 0.034223 -6.15251
R_Thigh  -15.8867 1.08114 6.70948
R_Calf  -8.67204 3.03477 9.68106
R_Foot  1.087 4.48341 2.99049
R_Toe0  -1.78851 -0.272788 -17.3235
53
root  -11.2598 30.2264 -6.51773 -121.041 -8.68634 85.5086
Spine  -8.13315 -3.98997 -2.96985
Spine1  -7.53177 16.111 -0.324212
Neck  3.97569e-016 0 -2.38542e-015
Head  36.9762 -5.73728 18.4256
R_Clavicle  0.673139 -9.64001 4.34913
R_UpperArm  61.951 -0.907446 57.3182
R_Forearm  20.0311 19.2856 -16.9277
R_Hand  -0.966917 12.1155 -19.1614
L_Clavicle  -0.2791 10.1662 -0.0982899
L_UpperArm  -5.83719 -6.58885 1.10132
L_Forearm  -1.88828 -8.8416 -10.362
L_Hand  -0.429451 4.83356 -4.54365
L_Thigh  -3.12345 9.68074 -3.94528
L_Calf  -13.0275 0.646976 -5.04479
L_Foot  3.93314 11.1879 3.96381
L_Toe0  0.421903 0.0204097 -6.08812
R_Thigh  -20.3575 -2.11191 6.80931
R_Calf  -7.74758 3.10718 9.84329
R_Foot  1.95968 7.28927 3.62239
R_Toe0  -1.78851 -0.272788 -17.3235
54
root  -12.0122 29.9708 -7.15917 -121.727 -9.44865 83.0458
Spine  -8.70429 -5.40439 -5.03543
Spine1  -8.17839 14.4942 -1.44819
Neck  3.97569e-016 0 -2.38542e-015
Head  36.9395 -6.11136 19.6315
R_Clavicle  0.770111 -5.11044 4.41017
R_UpperArm  65.2401 2.88919 58.1886
R_Forearm  18.8613 20.1485 -17.7749
R_Hand  -0.764205 12.9472 -18.063
L_Clavicle  -0.210586 7.36495 0.05561
L_UpperArm  -10.6857 -10.4915 1.77079
L_Forearm  -0.314487 -7.61328 -8.89303
L_Hand  -0.442881 4.21163 -4.99865
L_Thigh  -2.74942 10.3052 -10.1711
L_Calf  -9.37115 -0.874538 6.13607
L_Foot  2.56111 7.98172 2.10684
L_Toe0  -2.41606 0.201517 -4.68501
R_Thigh  -23.2595 -5.44756 8.65038
R_Calf  -8.45739 2.52079 7.95706
R_Foot  2.61864 9.406 5.16909
R_Toe0  -1.78851 -0.272788 -17.3235
55
root  -12.826 29.325 -7.76607 -122.67 -10.743 81.0603
Spine  -9.03675 -6.32133 -5.27467
Spine1  -8.76444 12.579 -3.88895
Neck  3.97569e-016 0 -2.38542e-015
Head  36.9524 -5.89655 19.8433
R_Clavicle  0.920154 0.0721802 4.68236
R_UpperArm  67.5214 8.04248 58.0777
R_Forearm  17.8372 17.8899 -15.5829
R_Hand  -0.559996 13.0109 -16.8945
L_Clavicle  -0.104802 4.15549 -0.111753
L_UpperArm  -14.9108 -14.4171 3.02663
L_Forearm  -2.08476 -4.71276 -5.47615
L_Hand  -0.486698 3.39731 -6.04877
L_Thigh  0.128014 9.96498 -16.314
L_Calf  -0.10447 -1.99694 14.5231
L_Foot  -0.532077 -3.64343 2.93782
L_Toe0  -6.77592 0.618437 0.0106496
R_Thigh  -25.2872 -8.63405 11.6023
R_Calf  -10.739 1.24431 3.94269
R_Foot  3.0656 10.7932 7.7871
R_Toe0  -1.78851 -0.272788 -17.3235
56
root  -13.6413 28.3954 -8.29309 -123.541 -12.8762 80.0738
Spine  -9.32223 -7.32982 -3.35042
Spine1  -9.16225 11.5996 -6.35448
Neck  3.97569e-016 0 -2.38542e-015
Head  37.3931 -5.02867 18.4851
R_Clavicle  1.31166 4.66171 5.95748
R_UpperArm  68.6095 15.7359 56.1301
R_Forearm  17.6294 12.2174 -10.3903
R_Hand  -0.419839 12.1664 -15.8652
L_Clavicle  -0.0542352 1.49956 0.113701
L_UpperArm  -17.5776 -19.0142 3.80521
L_Forearm  -5.61711 -0.157687 -0.194174
L_Hand  -0.549854 3.3488 -6.89084
L_Thigh  2.94474 9.12103 -21.4687
L_Calf  8.9411 -2.52591 18.595
L_Foot  -3.11557 -15.0051 10.3003
L_Toe0  1.71337 -0.176056 2.80694
R_Thigh  -27.4474 -11.2108 14.1847
R_Calf  -13.1977 -0.487256 -1.43247
R_Foot  3.22637 11.3002 11.2229
R_Toe0  -1.78851 -0.272788 -17.3235
57
root  -14.2513 27.588 -8.64827 -123.922 -15.0402 79.7903
Spine  -9.588 -9.00541 -1.13107
Spine1  -9.21966 12.2461 -6.71337
Neck  3.97569e-016 0 -2.38542e-015
Head  38.4957 -3.84806 15.3586
R_Clavicle  1.79025 7.19529 7.46843
R_UpperArm  69.3379 24.251 52.4525
R_Forearm  16.5834 4.55492 -3.82105
R_Hand  -0.353756 11.0674 -15.1207
L_Clavicle  -0.156314 0.470068 1.05162
L_UpperArm  -19.3709 -23.4762 3.35662
L_Forearm  -6.61644 5.79449 6.7203
L_Hand  -0.59173 4.02842 -6.86565
L_Thigh  2.49914 8.10249 -24.8468
L_Calf  12.6735 -2.60803 19.2968
L_Foot  -3.16054 -16.533 20.6202
L_Toe0  4.54259 -0.254412 -3.27385
R_Thigh  -29.7905 -12.8278 15.4821
R_Calf  -14.3448 -1.8947 -5.79693
R_Foot  3.27637 11.4581 13.9944
R_Toe0  -1.78851 -0.272788 -17.3235
